<svg xmlns="http://www.w3.org/2000/svg" width="263" height="71"><g fill="#000" fill-opacity=".87" fill-rule="evenodd"><path d="M114.04 30.14h2.02v7.88H97.9v-7.88h1.97l-2.78-3.93h-.48l-2.79 3.93h1.97v7.88H79v-7.88h2.5l9.21-10.36-9.6-11.24H79.1V.67h18v7.87h-1.83l2.64 3.94h.48l2.64-3.94h-1.82V.67h16.65v7.87h-2.5l-9.06 10.23 9.74 11.37zm18.73 8.55c-3.07 0-5.98-.27-8.71-.8a29.16 29.16 0 0 1-6.32-1.8v-9.5h10.56c0 1 .23 1.71.68 2.16.44.45 1.26.67 2.44.67 1 0 1.7-.15 2.14-.45.43-.3.65-.76.65-1.37 0-.51-.21-.95-.63-1.32a7.25 7.25 0 0 0-2.16-1.13l-4.12-1.44c-3.56-1.34-6.1-2.93-7.66-4.75-1.55-1.82-2.33-4.29-2.33-7.4 0-3.77 1.24-6.64 3.72-8.6C123.51.97 127.65 0 133.44 0c2.78 0 5.4.28 7.85.84 2.45.56 4.42 1.3 5.93 2.23v8.6h-9.6c0-1.6-1-2.4-2.98-2.4a4.2 4.2 0 0 0-2.04.35c-.4.24-.6.67-.6 1.28 0 .54.23.97.7 1.3.46.31 1.22.65 2.28 1l4.17 1.44c3.4 1.15 5.87 2.65 7.42 4.49 1.55 1.84 2.33 4.25 2.33 7.22 0 4.07-1.37 7.14-4.1 9.22-2.74 2.08-6.75 3.12-12.03 3.12zm17.67-8.55h2.4V8.54h-2.4V.67h21.07c4.13 0 7.28.89 9.46 2.67 2.17 1.77 3.26 4.64 3.26 8.61 0 3.97-1.09 6.84-3.26 8.62-2.18 1.77-5.33 2.66-9.46 2.66h-5.23v6.91h4.6v7.88h-20.44v-7.88zm17.47-13.72c1.86 0 2.79-1.03 2.79-3.08v-1.72c0-1.06-.24-1.84-.7-2.33-.46-.5-1.16-.75-2.09-.75h-1.63v7.88h1.63zM10.42 66.74l-3.38-4.86-3.32 4.86H0l5.18-7.12-4.92-6.88h3.68l3.22 4.54 3.16-4.54h3.5L8.94 59.5l5.22 7.24h-3.74zm5.29-10.76h3.12v10.76h-3.12V55.98zm1.56-1.5c-.57 0-1.04-.17-1.4-.5a1.62 1.62 0 0 1-.54-1.24c0-.5.18-.9.54-1.24.36-.33.83-.5 1.4-.5s1.04.16 1.4.48c.36.32.54.72.54 1.2 0 .52-.18.95-.54 1.29-.36.34-.83.51-1.4.51zm9.05 1.34c1.67 0 2.95.4 3.84 1.19.9.8 1.34 1.99 1.34 3.59v6.14h-2.92V65.4c-.59 1-1.68 1.5-3.28 1.5a5.1 5.1 0 0 1-2.15-.42 3.02 3.02 0 0 1-1.87-2.84c0-1 .38-1.79 1.13-2.36.75-.57 1.92-.86 3.49-.86h2.48c0-.68-.2-1.2-.62-1.57-.41-.37-1.03-.55-1.86-.55a5.43 5.43 0 0 0-3.1 1l-1.12-2.18a6.76 6.76 0 0 1 2.11-.96 9.45 9.45 0 0 1 2.53-.34zm-.24 8.98c.53 0 1-.12 1.42-.37.41-.25.7-.61.88-1.09v-1.1h-2.14c-1.28 0-1.92.42-1.92 1.26 0 .4.16.72.47.95.31.23.74.35 1.29.35zm13.73 2.1a6.45 6.45 0 0 1-3.05-.71 5.28 5.28 0 0 1-2.87-4.83 5.28 5.28 0 0 1 2.87-4.83c.9-.47 1.92-.71 3.05-.71a6.4 6.4 0 0 1 3.04.71 5.3 5.3 0 0 1 2.86 4.83 5.3 5.3 0 0 1-2.86 4.83c-.9.47-1.9.71-3.04.71zm0-2.56c.8 0 1.46-.27 1.97-.81s.77-1.26.77-2.17c0-.9-.26-1.63-.77-2.17a2.6 2.6 0 0 0-1.97-.81c-.8 0-1.46.27-1.98.81a3 3 0 0 0-.78 2.17 3 3 0 0 0 .78 2.17c.52.54 1.18.81 1.98.81zm11.21-6.94c.37-.52.88-.91 1.51-1.18a5.6 5.6 0 0 1 2.19-.4v2.88l-.7-.04c-.9 0-1.6.25-2.1.75s-.76 1.25-.76 2.25v5.08h-3.12V55.98h2.98v1.42zm16.73-1.42v10.76h-2.96v-1.28c-.41.47-.9.82-1.48 1.07-.57.25-1.2.37-1.86.37-1.41 0-2.53-.4-3.36-1.22-.83-.81-1.24-2.02-1.24-3.62v-6.08h3.12v5.62c0 1.73.73 2.6 2.18 2.6.75 0 1.35-.24 1.8-.73.45-.49.68-1.21.68-2.17v-5.32h3.12zm4.35-4.24c.56 0 1.02.18 1.38.53.36.35.54.82.54 1.39 0 .27-.03.53-.1.8s-.2.67-.42 1.2l-1.16 2.88h-1.98l.86-3.16c-.33-.15-.6-.37-.78-.66-.19-.3-.28-.65-.28-1.06a1.84 1.84 0 0 1 1.94-1.92zm7.55 15.16c-.9 0-1.77-.11-2.62-.33a6.85 6.85 0 0 1-2.04-.83l1.04-2.24a7.3 7.3 0 0 0 3.74 1.04c1.32 0 1.98-.33 1.98-.98 0-.3-.18-.53-.54-.66a8 8 0 0 0-1.66-.34c-.88-.13-1.6-.29-2.18-.46a3.38 3.38 0 0 1-1.49-.92c-.42-.44-.63-1.07-.63-1.88 0-.68.2-1.28.59-1.81.4-.53.97-.94 1.72-1.23.75-.3 1.64-.44 2.67-.44.76 0 1.52.08 2.27.25.75.17 1.38.4 1.87.69l-1.04 2.22a6.2 6.2 0 0 0-3.1-.8c-.67 0-1.17.1-1.5.28-.33.19-.5.43-.5.72 0 .33.18.57.54.7.36.13.93.26 1.72.38.88.15 1.6.3 2.16.47.56.17 1.05.47 1.46.91.41.44.62 1.05.62 1.84 0 .67-.2 1.26-.6 1.78-.4.52-.98.92-1.75 1.21a7.8 7.8 0 0 1-2.73.43zm17.98.08c-1.1 0-2.18-.15-3.21-.45a7.53 7.53 0 0 1-2.49-1.17l1.1-2.44a8.04 8.04 0 0 0 4.62 1.46c.92 0 1.6-.14 2.04-.41.44-.27.66-.64.66-1.09 0-.33-.13-.61-.39-.83-.26-.22-.6-.4-1-.53s-.96-.28-1.65-.44a22.8 22.8 0 0 1-2.62-.76 4.26 4.26 0 0 1-1.75-1.22 3.3 3.3 0 0 1-.73-2.24c0-.81.22-1.55.66-2.21a4.44 4.44 0 0 1 1.99-1.57 8.12 8.12 0 0 1 3.25-.58c.9 0 1.77.1 2.62.32.85.21 1.6.52 2.24.92l-1 2.46a7.8 7.8 0 0 0-3.88-1.1c-.9 0-1.58.15-2.01.44-.43.3-.65.68-.65 1.16 0 .48.25.84.75 1.07.5.23 1.26.46 2.29.69 1.07.25 1.94.5 2.62.76.68.25 1.26.65 1.75 1.2.49.55.73 1.29.73 2.22 0 .8-.22 1.53-.67 2.19a4.5 4.5 0 0 1-2.01 1.57 8.2 8.2 0 0 1-3.26.58zm23.55 1.26c-.45.56-1 .99-1.65 1.28a5.91 5.91 0 0 1-4.95-.23c-.84-.45-1.8-1.24-2.88-2.37a7.87 7.87 0 0 1-3.39-1.22c-1-.65-1.77-1.5-2.32-2.53a7.15 7.15 0 0 1-.83-3.43 6.98 6.98 0 0 1 3.73-6.3 8.17 8.17 0 0 1 3.93-.94c1.45 0 2.76.31 3.92.94a7.07 7.07 0 0 1 3.74 6.3 6.97 6.97 0 0 1-5 6.84c.33.35.66.6.97.75.31.15.65.23 1.01.23.87 0 1.63-.35 2.28-1.04l1.44 1.72zm-12.74-8.5c0 .87.19 1.64.57 2.32.38.68.9 1.21 1.57 1.59.67.38 1.41.57 2.24.57.83 0 1.57-.19 2.24-.57a4.09 4.09 0 0 0 1.57-1.59c.38-.68.57-1.45.57-2.32 0-.87-.19-1.64-.57-2.32a4.09 4.09 0 0 0-1.57-1.59 4.44 4.44 0 0 0-2.24-.57c-.83 0-1.57.19-2.24.57-.67.38-1.19.91-1.57 1.59a4.67 4.67 0 0 0-.57 2.32zm14.73-7h3.24V64.1h7.02v2.64h-10.26v-14zm24.3 0c1.24 0 2.32.2 3.23.62.91.41 1.62 1 2.11 1.76.5.76.74 1.66.74 2.7 0 1.03-.25 1.92-.74 2.69-.5.77-1.2 1.35-2.11 1.76-.91.4-1.99.61-3.23.61h-2.82v3.86h-3.24v-14h6.06zm-.18 7.5c.97 0 1.71-.21 2.22-.63.5-.42.76-1.02.76-1.79 0-.79-.25-1.39-.76-1.81-.5-.42-1.25-.63-2.22-.63h-2.64v4.86h2.64zm8.79-8.34h3.12v14.84h-3.12V51.9zm10.61 3.92c1.67 0 2.95.4 3.84 1.19.9.8 1.34 1.99 1.34 3.59v6.14h-2.92V65.4c-.59 1-1.68 1.5-3.28 1.5a5.1 5.1 0 0 1-2.15-.42 3.02 3.02 0 0 1-1.87-2.84c0-1 .38-1.79 1.13-2.36.75-.57 1.92-.86 3.49-.86h2.48c0-.68-.2-1.2-.62-1.57-.41-.37-1.03-.55-1.86-.55a5.43 5.43 0 0 0-3.1 1l-1.12-2.18a6.76 6.76 0 0 1 2.11-.96 9.45 9.45 0 0 1 2.53-.34zm-.24 8.98c.53 0 1-.12 1.42-.37.41-.25.7-.61.88-1.09v-1.1h-2.14c-1.28 0-1.92.42-1.92 1.26 0 .4.16.72.47.95.31.23.74.35 1.29.35zm18.97-8.82l-4.86 11.42a5.62 5.62 0 0 1-1.83 2.62c-.73.5-1.6.76-2.63.76-.56 0-1.11-.09-1.66-.26-.55-.17-1-.41-1.34-.72l1.14-2.22a2.68 2.68 0 0 0 1.76.68c.43 0 .77-.1 1.04-.31.27-.2.5-.55.72-1.03l.04-.1-4.66-10.84h3.22l3.02 7.3 3.04-7.3h3zm12.33 0v8.96c0 1.97-.51 3.44-1.54 4.4-1.03.96-2.53 1.44-4.5 1.44-1.04 0-2.03-.13-2.96-.38a6.47 6.47 0 0 1-2.32-1.1l1.24-2.24a5.1 5.1 0 0 0 1.72.89c.7.22 1.39.33 2.08.33 1.08 0 1.88-.24 2.39-.73.51-.49.77-1.22.77-2.21v-.46a4.37 4.37 0 0 1-3.4 1.34c-.99 0-1.89-.22-2.71-.65a4.95 4.95 0 0 1-2.67-4.55 4.95 4.95 0 0 1 2.67-4.55 5.71 5.71 0 0 1 2.71-.65c1.56 0 2.75.51 3.56 1.54v-1.38h2.96zm-5.9 7.68c.83 0 1.5-.24 2.03-.73.53-.49.79-1.12.79-1.91 0-.79-.26-1.42-.79-1.91a2.87 2.87 0 0 0-2.03-.73c-.83 0-1.5.24-2.04.73-.53.49-.8 1.12-.8 1.91 0 .79.27 1.42.8 1.91s1.21.73 2.04.73zm12.03-6.26c.37-.52.88-.91 1.51-1.18a5.6 5.6 0 0 1 2.19-.4v2.88l-.7-.04c-.9 0-1.6.25-2.1.75s-.76 1.25-.76 2.25v5.08h-3.12V55.98h2.98v1.42zm10.83 9.5a6.45 6.45 0 0 1-3.05-.71 5.28 5.28 0 0 1-2.87-4.83 5.28 5.28 0 0 1 2.87-4.83c.9-.47 1.92-.71 3.05-.71a6.4 6.4 0 0 1 3.04.71 5.3 5.3 0 0 1 2.86 4.83 5.3 5.3 0 0 1-2.86 4.83c-.9.47-1.9.71-3.04.71zm0-2.56c.8 0 1.46-.27 1.97-.81s.77-1.26.77-2.17c0-.9-.26-1.63-.77-2.17a2.6 2.6 0 0 0-1.97-.81c-.8 0-1.46.27-1.98.81a3 3 0 0 0-.78 2.17 3 3 0 0 0 .78 2.17c.52.54 1.18.81 1.98.81zm19.07-8.36v10.76h-2.96v-1.28c-.41.47-.9.82-1.48 1.07-.57.25-1.2.37-1.86.37-1.41 0-2.53-.4-3.36-1.22-.83-.81-1.24-2.02-1.24-3.62v-6.08H226v5.62c0 1.73.73 2.6 2.18 2.6.75 0 1.35-.24 1.8-.73.45-.49.68-1.21.68-2.17v-5.32h3.12zm9.69-.16c1.33 0 2.41.4 3.23 1.2.82.8 1.23 1.99 1.23 3.56v6.16h-3.12v-5.68c0-.85-.19-1.49-.56-1.91-.37-.42-.91-.63-1.62-.63-.79 0-1.41.24-1.88.73s-.7 1.21-.7 2.17v5.32h-3.12V55.98h2.98v1.26c.41-.45.93-.8 1.54-1.05a5.37 5.37 0 0 1 2.02-.37zm18.61-3.92v14.84h-2.98V65.5c-.77.93-1.9 1.4-3.36 1.4a5.59 5.59 0 0 1-2.75-.68 4.87 4.87 0 0 1-1.93-1.94 5.91 5.91 0 0 1-.7-2.92c0-1.1.23-2.08.7-2.92a4.87 4.87 0 0 1 1.93-1.94 5.59 5.59 0 0 1 2.75-.68 4.1 4.1 0 0 1 3.22 1.3V51.9h3.12zm-5.8 12.44a2.6 2.6 0 0 0 1.96-.81 3 3 0 0 0 .78-2.17 3 3 0 0 0-.78-2.17 2.6 2.6 0 0 0-1.96-.81c-.8 0-1.46.27-1.98.81a3 3 0 0 0-.78 2.17 3 3 0 0 0 .78 2.17c.52.54 1.18.81 1.98.81z"/></g></svg>